<?xml version="1.0" encoding="UTF-8"?>
<svg id="Layer_1" data-name="Layer 1" xmlns="http://www.w3.org/2000/svg" viewBox="0 0 557.02 753.15">
  <defs>
    <style>
      .cls-1 {
        fill: #fff;
      }
    </style>
  </defs>
  <path class="cls-1" d="M555.77,452.06c-4.91,50.67-77.11,161.4-118.07,224.26-5.54,8.44-10.45,15.99-14.57,22.43-5.07,7.76-17.58,28.34-26.86,39.74,0,0-.05,0-.11.05-9.55,8.18-20.27,13.51-32.04,14.57-21.75.79-42.96-12.3-59.85-28.45l-.05-.05-.37-.37c-.16-.05-.21-.16-.37-.26-.26-.32-.58-.63-.9-.9-1.27-1.21-3.17-3.17-5.59-5.86-.32-.37-.69-.79-1.06-1.16-.74-.79-1.48-1.69-2.32-2.59-.53-.63-1.11-1.32-1.69-2.01-3.11-3.59-5.91-7.28-8.5-10.77-1.9-2.59-3.69-5.28-5.38-7.92-1.06-1.53-2.16-3.17-3.22-4.86-.53-.84-1.06-1.69-1.64-2.59-.53-.84-1.06-1.74-1.58-2.64-.48-.74-.95-1.48-1.43-2.27-.63-1.11-1.27-2.27-1.95-3.43-1.21-2.16-2.43-4.28-3.59-6.44-.84-1.64-1.69-3.27-2.53-4.91-.79-1.69-1.64-3.27-2.43-4.96-.79-1.64-1.58-3.33-2.38-5.01-9.03-19.85-15.78-40.69-20.16-62.12-.42-2.06-.84-4.17-1.21-6.28-.42-2.43-.79-4.86-1.21-7.28-.37-2.43-.74-4.86-1.06-7.28-.37-2.43-.69-4.86-.9-7.39-.21-1.85-.37-3.69-.53-5.59-.21-1.58-.32-3.22-.42-4.91-.05-.63-.11-1.32-.16-2.06-.11-1.79-.21-3.59-.32-5.44-.58-11.14-.53-22.27.11-33.41,1.11-20.32,4.28-40.54,9.34-60.12-57.42-11.77-103.34,4.59-142.3,34.47-2.96,2.64-5.91,5.33-8.87,8.13-19.48,18.26-40.11,39.85-61.28,65.39-9.4,11.29-18.84,23.33-28.34,36.26.9-2.16,19.53-47.08,50.67-101.6,11.4-19.9,24.44-41.12,38.95-62.02,40.38-58.16,91.78-113.74,148.79-131.9.16-.11.26-.16.42-.16.11-.05.16-.05.26-.11,26.39-9.55,55.95-12.93,89.78-7.65-11.45,52.15-9.76,108.15,5.33,159.92,4.01,13.83,8.97,27.29,14.88,40.32,0,0,.05.21.21.63.05.11.16.26.21.42,0,.11.11.26.21.48,7.02,15.25,15.36,29.87,25.02,43.7.37.48.74.95,1.11,1.48.79,1.11,1.58,2.22,2.43,3.38,19.95,27.08,50.09,52.04,86.03,47.71-1.58-20.06,2.22-43.07,0-62.7-15.73-139.5-156.97-270.08-82.55-424.62,17.1-35.47,46.02-74.63,70.67-105.35,4.54,8.97-2.9,19.32-3.27,28.66-5.23,149.9,121.71,266.86,106.62,423.4Z"/>
</svg>