<svg width="887" height="216" viewBox="0 0 887 216" fill="none" xmlns="http://www.w3.org/2000/svg">
<path d="M159.326 129.653C157.919 144.179 137.21 175.946 125.465 193.972C123.862 196.393 122.455 198.553 121.278 200.417C119.838 202.642 116.239 208.531 113.557 211.802C110.809 214.158 107.733 215.663 104.364 215.99C98.1148 216.219 92.0297 212.457 87.1878 207.844L87.0896 207.713C87.0569 207.713 87.0242 207.68 86.9915 207.648C86.926 207.549 86.8279 207.451 86.7297 207.386C86.3699 207.026 85.8137 206.47 85.1267 205.717C85.0285 205.619 84.9304 205.488 84.8322 205.39C84.6359 205.161 84.4069 204.899 84.1779 204.638C84.0143 204.441 83.8507 204.245 83.6872 204.049C82.8038 203.035 81.9859 201.955 81.2662 200.973C80.71 200.221 80.2193 199.469 79.7285 198.716C79.4341 198.291 79.1069 197.8 78.8125 197.309C78.6489 197.08 78.518 196.819 78.3545 196.557C78.1909 196.328 78.06 196.066 77.8964 195.804C77.7656 195.608 77.6347 195.379 77.5039 195.15C77.3076 194.823 77.144 194.496 76.9477 194.169C76.5878 193.547 76.2607 192.958 75.9335 192.337C75.7045 191.878 75.4428 191.388 75.2137 190.93C74.9847 190.439 74.7557 189.981 74.5267 189.523C74.2977 189.065 74.0687 188.574 73.8397 188.083C71.2551 182.391 69.3249 176.404 68.049 170.253C67.9181 169.664 67.82 169.043 67.6891 168.454C67.5582 167.767 67.4601 167.047 67.3292 166.36C67.2311 165.673 67.1329 164.953 67.0348 164.266C66.9366 163.579 66.8385 162.86 66.7731 162.14C66.7076 161.616 66.6749 161.093 66.6095 160.537C66.544 160.079 66.5113 159.621 66.4786 159.13C66.4786 158.934 66.4786 158.737 66.4459 158.541C66.4459 158.018 66.3805 157.527 66.3477 156.971C66.1842 153.765 66.1842 150.591 66.3477 147.385C66.6749 141.562 67.5582 135.771 69.0305 130.144C52.5744 126.774 39.3899 131.452 28.2338 140.024C27.3832 140.776 26.5326 141.561 25.6819 142.347C20.0875 147.581 14.166 153.765 8.11353 161.093C5.43083 164.332 2.71542 167.8 0 171.497C0.261727 170.875 5.59441 157.985 14.5258 142.347C17.7974 136.654 21.527 130.569 25.6819 124.549C37.2634 107.864 52.0182 91.9316 68.3434 86.7297C68.3761 86.7297 68.4089 86.697 68.4743 86.697C68.4743 86.697 68.507 86.697 68.5397 86.697C76.0971 83.9489 84.5705 83.0001 94.2871 84.5051C91.0155 99.4562 91.4735 115.52 95.8247 130.373C96.9698 134.331 98.4093 138.192 100.078 141.921C100.078 141.921 100.078 141.987 100.143 142.118C100.143 142.118 100.176 142.183 100.209 142.249C100.209 142.249 100.209 142.314 100.274 142.379C102.302 146.763 104.691 150.951 107.439 154.91C107.537 155.04 107.635 155.171 107.766 155.335C107.995 155.662 108.224 155.956 108.453 156.316C114.178 164.07 122.815 171.235 133.121 169.992C132.663 164.234 133.742 157.625 133.121 151.998C128.606 111.986 88.1038 74.5267 109.435 30.2294C114.342 20.0548 122.619 8.83328 129.718 0C131.027 2.58455 128.9 5.52898 128.77 8.21168C127.265 51.2003 163.677 84.7341 159.359 129.653H159.326Z" fill="white"/>
<path d="M350.553 187.719H330.269L248.675 63.9878V187.719H228.392V32.0898H248.675L330.269 155.592V32.0898H350.553V187.719Z" fill="white"/>
<path d="M385.101 93.3046C390.14 83.8825 397.108 76.5541 405.941 71.3523C414.775 66.1505 424.622 63.5332 435.484 63.5332C446.345 63.5332 455.473 65.8233 463.358 70.4363C471.242 75.0492 477.098 80.8399 480.959 87.8411V65.5289H501.472V187.69H480.959V164.952C476.935 172.084 470.948 178.006 462.998 182.684C455.048 187.363 445.789 189.718 435.222 189.718C424.655 189.718 414.578 187.036 405.81 181.703C397.043 176.337 390.14 168.846 385.069 159.194C379.998 149.543 377.479 138.551 377.479 126.184C377.479 113.817 379.998 102.727 385.069 93.3046H385.101ZM475.397 102.334C471.667 95.4966 466.662 90.2621 460.348 86.6306C454.034 82.9991 447.065 81.167 439.508 81.167C431.95 81.167 425.015 82.9664 418.766 86.5325C412.517 90.0985 407.544 95.3003 403.815 102.138C400.085 108.976 398.253 116.991 398.253 126.217C398.253 135.443 400.118 143.72 403.815 150.623C407.544 157.526 412.517 162.793 418.766 166.457C425.015 170.089 431.918 171.921 439.508 171.921C447.098 171.921 454.034 170.089 460.348 166.457C466.662 162.826 471.667 157.526 475.397 150.623C479.127 143.72 480.991 135.639 480.991 126.446C480.991 117.253 479.127 109.205 475.397 102.367V102.334Z" fill="white"/>
<path d="M574.396 70.4668C582.411 65.8539 591.572 63.5638 601.812 63.5638C612.804 63.5638 622.684 66.181 631.452 71.3829C640.22 76.5847 647.123 83.913 652.194 93.3352C657.232 102.757 659.784 113.75 659.784 126.215C659.784 138.679 657.265 149.541 652.194 159.225C647.123 168.876 640.187 176.401 631.354 181.733C622.521 187.099 612.673 189.749 601.812 189.749C590.95 189.749 582.019 187.459 574.069 182.846C566.119 178.233 560.132 172.377 556.14 165.245V187.753H535.856V22.7344H556.14V88.2642C560.295 81.0013 566.38 75.047 574.428 70.4341L574.396 70.4668ZM633.481 102.103C629.751 95.2654 624.745 90.0636 618.431 86.4976C612.117 82.9316 605.149 81.1322 597.591 81.1322C590.034 81.1322 583.294 82.9643 576.98 86.5957C570.666 90.2272 565.595 95.4944 561.833 102.43C558.038 109.333 556.14 117.349 556.14 126.411C556.14 135.473 558.038 143.685 561.833 150.588C565.628 157.491 570.666 162.758 576.98 166.422C583.294 170.054 590.165 171.886 597.591 171.886C605.018 171.886 612.117 170.054 618.431 166.422C624.745 162.791 629.751 157.491 633.481 150.588C637.21 143.685 639.042 135.539 639.042 126.182C639.042 116.825 637.177 108.941 633.481 102.103Z" fill="white"/>
<path d="M722.107 70.01C728.715 65.5606 736.796 63.3359 746.284 63.3359V84.3068H740.918C718.181 84.3068 706.796 96.6407 706.796 121.308V187.754H686.512V65.5606H706.796V88.7562C710.362 80.7408 715.465 74.492 722.074 70.0427L722.107 70.01Z" fill="white"/>
<path d="M769.708 93.3046C774.746 83.8825 781.714 76.5541 790.548 71.3523C799.381 66.1505 809.228 63.5332 820.09 63.5332C830.952 63.5332 840.08 65.8233 847.964 70.4363C855.849 75.0492 861.705 80.8399 865.565 87.8411V65.5289H886.078V187.69H865.565V164.952C861.541 172.084 855.554 178.006 847.604 182.684C839.654 187.363 830.396 189.718 819.861 189.718C809.327 189.718 799.185 187.036 790.417 181.703C781.649 176.337 774.746 168.846 769.675 159.194C764.637 149.543 762.085 138.551 762.085 126.184C762.085 113.817 764.604 102.727 769.675 93.3046H769.708ZM860.004 102.334C856.274 95.4966 851.268 90.2621 844.954 86.6306C838.64 82.9991 831.672 81.167 824.114 81.167C816.557 81.167 809.621 82.9664 803.372 86.5325C797.124 90.0985 792.151 95.3003 788.454 102.138C784.724 108.976 782.892 116.991 782.892 126.217C782.892 135.443 784.757 143.72 788.454 150.623C792.184 157.526 797.156 162.793 803.372 166.457C809.621 170.089 816.524 171.921 824.114 171.921C831.704 171.921 838.64 170.089 844.954 166.457C851.268 162.826 856.274 157.526 860.004 150.623C863.733 143.72 865.565 135.639 865.565 126.446C865.565 117.253 863.7 109.205 860.004 102.367V102.334Z" fill="white"/>
</svg>
