<svg width="1668" height="285" viewBox="0 0 1668 285" fill="none" xmlns="http://www.w3.org/2000/svg">
<path d="M240.83 26.13H219.21C219.21 56.35 194.72 80.86 164.5 80.89C134.6 80.86 110.35 56.86 109.84 27.07V0H88.14V26.72C87.82 56.43 63.86 80.44 34.17 80.85H0V102.55H34.17C64.06 102.96 88.17 127.28 88.17 157.27V227.99H109.79V157.18C109.84 127 134.31 102.54 164.5 102.51C194.68 102.54 219.14 126.97 219.2 157.14V227.99H240.82V157.27C240.82 127.03 265.34 102.51 295.58 102.51V80.89C265.34 80.89 240.82 56.37 240.82 26.13H240.83Z" fill="white"/>
<path d="M449.5 27.74L553.52 224.05H554.66V27.74H586.67V227.77H522.38L418.08 30.89H417.22V227.77H385.21V27.74H449.5Z" fill="white"/>
<path d="M728.4 177.47H726.4C725.64 186.23 722.97 194.76 718.4 203.04C713.83 211.33 707.16 218.14 698.4 223.47C689.63 228.8 678.87 231.47 666.11 231.47C650.29 231.47 637.96 227.8 629.11 220.47C620.25 213.14 615.82 203.09 615.82 190.32C615.82 176.03 621.1 165.42 631.68 158.46C642.26 151.51 656.87 148.03 675.54 148.03C694.21 148.03 710.3 149.17 726.69 151.46L726.4 144.6C726.21 132.6 722.69 123.6 715.83 117.6C708.97 111.6 698.97 108.6 685.82 108.6C677.06 108.6 668.29 109.6 659.53 111.6C650.76 113.6 642.57 116.32 634.96 119.75L632.1 95.17C640.29 91.36 649.25 88.46 658.96 86.45C668.67 84.45 678.48 83.45 688.39 83.45C711.06 83.45 728.01 88.55 739.25 98.74C750.49 108.93 756.11 123.27 756.11 141.74V227.75H735.54L728.4 177.46V177.47ZM654.67 202.19C660.57 206.48 668.48 208.62 678.39 208.62C691.34 208.62 702.44 204.72 711.68 196.9C720.92 189.09 726.01 177.47 726.97 162.04L726.68 160.33C712.96 159 699.82 158.33 687.25 158.33C673.72 158.33 663.44 160.52 656.39 164.9C649.34 169.28 645.82 175.76 645.82 184.33C645.82 191.95 648.77 197.9 654.68 202.19H654.67Z" fill="white"/>
<path d="M823.55 16.03V93.18L822.12 139.47H823.55C825.64 121.95 832.22 108.28 843.27 98.46C854.32 88.65 868.7 83.74 886.42 83.74C906.8 83.74 922.66 90.17 934 103.03C945.33 115.89 951 134.13 951 157.75C951 181.37 945.19 199.38 933.57 212.33C921.95 225.29 905.66 231.76 884.71 231.76C867.18 231.76 853.13 226.76 842.56 216.76C831.99 206.76 825.65 192.9 823.56 175.18H821.85L814.13 227.76H793.56V16.02H823.57L823.55 16.03ZM837.84 194.05C846.79 203.01 858.98 207.48 874.42 207.48C889.86 207.48 900.75 203.15 908.86 194.48C916.95 185.81 921 173.58 921 157.76C921 141.94 916.95 129.71 908.86 121.04C900.76 112.37 889.38 108.04 874.71 108.04C859.09 108.04 846.8 112.28 837.85 120.76C828.89 129.24 824.42 141.19 824.42 156.62C824.42 172.05 828.89 185.1 837.85 194.05H837.84Z" fill="white"/>
<path d="M997.28 87.46L1005 144.9H1006.71C1008.04 126.61 1012.18 111.85 1019.14 100.61C1026.09 89.37 1036.43 83.75 1050.15 83.75C1057.19 83.75 1064.05 84.89 1070.72 87.18L1069.58 116.04C1061.58 113.18 1053.67 111.75 1045.86 111.75C1032.14 111.75 1022.15 117.61 1015.86 129.32C1009.57 141.04 1006.43 158.04 1006.43 180.33V227.76H976.71V87.46H997.28Z" fill="white"/>
<path d="M1182.17 177.47H1180.17C1179.41 186.23 1176.74 194.76 1172.17 203.04C1167.6 211.33 1160.93 218.14 1152.17 223.47C1143.4 228.8 1132.64 231.47 1119.88 231.47C1104.06 231.47 1091.73 227.8 1082.88 220.47C1074.02 213.14 1069.59 203.09 1069.59 190.32C1069.59 176.03 1074.87 165.42 1085.45 158.46C1096.03 151.51 1110.64 148.03 1129.31 148.03C1147.98 148.03 1164.07 149.17 1180.46 151.46L1180.17 144.6C1179.98 132.6 1176.46 123.6 1169.6 117.6C1162.74 111.6 1152.74 108.6 1139.59 108.6C1130.83 108.6 1122.06 109.6 1113.3 111.6C1104.53 113.6 1096.34 116.32 1088.73 119.75L1085.87 95.17C1094.06 91.36 1103.02 88.46 1112.73 86.45C1122.44 84.45 1132.25 83.45 1142.16 83.45C1164.83 83.45 1181.78 88.55 1193.02 98.74C1204.26 108.93 1209.88 123.27 1209.88 141.74V227.75H1189.31L1182.17 177.46V177.47ZM1108.44 202.19C1114.34 206.48 1122.25 208.62 1132.16 208.62C1145.11 208.62 1156.21 204.72 1165.45 196.9C1174.69 189.09 1179.78 177.47 1180.74 162.04L1180.45 160.33C1166.73 159 1153.59 158.33 1141.02 158.33C1127.49 158.33 1117.21 160.52 1110.16 164.9C1103.11 169.28 1099.59 175.76 1099.59 184.33C1099.59 191.95 1102.54 197.9 1108.45 202.19H1108.44Z" fill="white"/>
<path d="M1226.45 87.46H1258.46L1297.61 224.34H1298.75L1336.75 87.46H1384.19L1422.19 224.34H1423.33L1462.48 87.46H1494.48L1452.19 227.76H1398.75L1361.03 91.17H1359.6L1322.17 227.76H1269.02L1226.44 87.46H1226.45Z" fill="white"/>
<path d="M1537.63 282.92C1531.92 282.16 1527.34 281.21 1523.91 280.06L1525.34 256.91C1532.38 258.43 1541.06 259.19 1551.34 259.19C1565.06 259.19 1574.39 253.28 1579.34 241.47L1585.91 227.18H1558.48L1505.04 87.45H1535.9L1585.91 224.61H1587.05L1637.05 87.45H1667.91L1614.47 227.18L1606.19 245.47C1601.05 259.37 1594.37 269.28 1586.19 275.19C1578 281.09 1567.14 284.05 1553.61 284.05C1548.66 284.05 1543.32 283.67 1537.61 282.91L1537.63 282.92Z" fill="white"/>
</svg>
