<?xml version="1.0" encoding="utf-8"?>
<!-- Generator: Adobe Illustrator 26.3.1, SVG Export Plug-In . SVG Version: 6.00 Build 0)  -->
<svg version="1.1" id="Layer_1" xmlns="http://www.w3.org/2000/svg" xmlns:xlink="http://www.w3.org/1999/xlink" x="0px" y="0px"
	 viewBox="0 0 2000 1000" style="enable-background:new 0 0 2000 1000;" xml:space="preserve">
<style type="text/css">
	.st0{fill:#1D1D1B;}
	.st1{fill:#2F064B;}
	.st2{fill:#FFFFFF;}
</style>
<rect y="-2.51" class="st0" width="2005" height="1005.01"/>
<g>
	<circle class="st1" cx="1626.7" cy="540.36" r="86.3"/>
	<g>
		<path class="st2" d="M348.24,410.02v165.2h-40.33V358.64h55.56l86.63,165.2v-165.2h40.33v216.58h-55.56L348.24,410.02z"/>
		<path class="st2" d="M612.76,573.12c-8.47,3.98-18.77,5.97-30.92,5.97c-11.35,0-21.46-2.34-30.32-7.02
			c-8.86-4.68-15.68-10.8-20.46-18.37c-4.78-7.57-7.17-15.33-7.17-23.3c0-14.54,5.53-25.89,16.58-34.05
			c11.05-8.16,28.33-13.84,51.83-17.03l14.34-2.09c9.36-1.59,15.68-3.53,18.97-5.83c3.29-2.29,4.93-6.22,4.93-11.8
			c0-6.17-2.49-10.85-7.47-14.04c-4.98-3.18-12.15-4.78-21.51-4.78c-9.56,0-17.28,2.19-23.15,6.57
			c-5.88,4.38-9.21,10.95-10.01,19.72l-37.94-4.78c2.19-15.13,9.86-27.28,23-36.44c13.14-9.16,29.57-13.74,49.29-13.74
			c21.91,0,38.73,4.88,50.49,14.64c11.75,9.76,17.62,27.38,17.62,52.88c0,4.18-0.1,8.07-0.3,11.65l-0.3,30.47
			c0,21.31,1.59,39.13,4.78,53.47h-39.73l-1.49-20.61C628.25,562.97,621.23,569.14,612.76,573.12z M606.64,502.92
			c-14.34,2.39-24.65,5.63-30.92,9.71c-6.27,4.08-9.41,9.61-9.41,16.58c0,5.97,2.44,11.1,7.32,15.38c4.88,4.29,11.5,6.42,19.87,6.42
			c12.94,0,22.4-3.83,28.38-11.5c5.97-7.66,8.96-19.57,8.96-35.7v-6.27C622.67,499.74,614.6,501.53,606.64,502.92z"/>
		<path class="st2" d="M750.33,575.21H709.1V358.64h41.22v79.46c4.38-7.57,10.65-13.49,18.82-17.77c8.16-4.28,17.33-6.42,27.48-6.42
			c13.34,0,25.24,3.44,35.7,10.31c10.46,6.87,18.62,16.53,24.5,28.98c5.87,12.45,8.81,26.84,8.81,43.17
			c0,16.53-2.99,31.07-8.96,43.61c-5.97,12.55-14.19,22.21-24.65,28.98c-10.46,6.77-22.26,10.16-35.4,10.16
			c-9.36,0-18.22-1.99-26.59-5.97c-8.36-3.98-14.94-10.05-19.72-18.22V575.21z M748.84,496.35c0,15.94,3.38,28.43,10.16,37.49
			c6.77,9.06,15.93,13.59,27.48,13.59c11.15,0,19.91-4.63,26.29-13.89c6.37-9.26,9.56-21.55,9.56-36.89
			c0-15.33-3.19-27.68-9.56-37.04c-6.38-9.36-15.14-14.04-26.29-14.04c-11.35,0-20.46,4.58-27.33,13.74
			C752.27,468.47,748.84,480.82,748.84,496.35z"/>
		<path class="st2" d="M970.19,456.32c-11.16,0-19.57,2.74-25.24,8.22c-5.68,5.48-8.51,15.29-8.51,29.42v81.25h-41.22V417.49h40.63
			v28.08c8.76-18.52,22.9-27.78,42.42-27.78c2.39,0,5.38,0.2,8.96,0.6v38.83C981.25,456.62,975.57,456.32,970.19,456.32z"/>
		<path class="st2" d="M1086.85,573.12c-8.47,3.98-18.77,5.97-30.92,5.97c-11.35,0-21.46-2.34-30.32-7.02
			c-8.86-4.68-15.68-10.8-20.46-18.37c-4.78-7.57-7.17-15.33-7.17-23.3c0-14.54,5.53-25.89,16.58-34.05
			c11.05-8.16,28.33-13.84,51.83-17.03l14.34-2.09c9.36-1.59,15.68-3.53,18.97-5.83c3.29-2.29,4.93-6.22,4.93-11.8
			c0-6.17-2.49-10.85-7.47-14.04c-4.98-3.18-12.15-4.78-21.51-4.78c-9.56,0-17.28,2.19-23.15,6.57
			c-5.88,4.38-9.21,10.95-10.01,19.72l-37.94-4.78c2.19-15.13,9.86-27.28,23-36.44c13.14-9.16,29.57-13.74,49.29-13.74
			c21.91,0,38.73,4.88,50.48,14.64c11.75,9.76,17.62,27.38,17.62,52.88c0,4.18-0.1,8.07-0.3,11.65l-0.3,30.47
			c0,21.31,1.59,39.13,4.78,53.47h-39.73l-1.49-20.61C1102.33,562.97,1095.31,569.14,1086.85,573.12z M1080.72,502.92
			c-14.34,2.39-24.64,5.63-30.92,9.71c-6.27,4.08-9.41,9.61-9.41,16.58c0,5.97,2.44,11.1,7.32,15.38c4.88,4.29,11.5,6.42,19.87,6.42
			c12.94,0,22.4-3.83,28.38-11.5c5.97-7.66,8.96-19.57,8.96-35.7v-6.27C1096.75,499.74,1088.69,501.53,1080.72,502.92z"/>
		<path class="st2" d="M1294.61,417.49L1320,525.33l21.51-107.84h40.93l-37.94,157.73h-42.42l-29.28-118.89l-29.57,118.89h-42.42
			l-37.64-157.73h40.93l21.51,108.14l25.09-108.14H1294.61z"/>
		<path class="st2" d="M1449.95,574.62l-61.54-157.13h45.11l36.45,112.92l37.34-112.92h41.82l-80.96,210.01h-38.54L1449.95,574.62z"
			/>
	</g>
	<g>
		<path class="st2" d="M1620.44,496.29l30.14,80.05h-12.15l-6.29-17.34h-36.77l-6.18,17.34h-11.48l29.7-80.05H1620.44z
			 M1628.61,549.4l-15.02-41.74l-14.8,41.74H1628.61z"/>
		<path class="st2" d="M1661.19,576.34v-80.05h11.26v80.05H1661.19z"/>
	</g>
</g>
</svg>
